<svg xmlns="http://www.w3.org/2000/svg" class="icon icon-tabler icon-tabler-photo-circle" width="16px" height="16px" viewBox="0 0 24 24" stroke-width="2" stroke="currentColor" fill="none" stroke-linecap="round" stroke-linejoin="round"><path stroke="none" d="M0 0h24v24H0z" fill="none"></path><path d="M15 8h.01"></path><path d="M4 15l4 -4c.928 -.893 2.072 -.893 3 0l5 5"></path><path d="M14 14l1 -1c.928 -.893 2.072 -.893 3 0l2 2"></path><path d="M3 12a9 9 0 0 0 9 9a9 9 0 0 0 9 -9a9 9 0 0 0 -9 -9a9 9 0 0 0 -9 9"></path></svg>