<svg xmlns="http://www.w3.org/2000/svg" class="icon icon-tabler icon-tabler-table-row" width="16px" height="16px" viewBox="0 0 24 24" stroke-width="2" stroke="currentColor" fill="none" stroke-linecap="round" stroke-linejoin="round"><path stroke="none" d="M0 0h24v24H0z" fill="none"></path><path d="M3 5a2 2 0 0 1 2 -2h14a2 2 0 0 1 2 2v14a2 2 0 0 1 -2 2h-14a2 2 0 0 1 -2 -2v-14z"></path><path d="M9 3l-6 6"></path><path d="M14 3l-7 7"></path><path d="M19 3l-7 7"></path><path d="M21 6l-4 4"></path><path d="M3 10h18"></path><path d="M10 10v11"></path></svg>