<svg xmlns="http://www.w3.org/2000/svg" class="icon icon-tabler icon-tabler-file-type-pdf" width="16px" height="16px" viewBox="0 0 24 24" stroke-width="2" stroke="currentColor" fill="none" stroke-linecap="round" stroke-linejoin="round"><path stroke="none" d="M0 0h24v24H0z" fill="none"></path><path d="M14 3v4a1 1 0 0 0 1 1h4"></path><path d="M5 12v-7a2 2 0 0 1 2 -2h7l5 5v4"></path><path d="M5 18h1.5a1.5 1.5 0 0 0 0 -3h-1.5v6"></path><path d="M17 18h2"></path><path d="M20 15h-3v6"></path><path d="M11 15v6h1a2 2 0 0 0 2 -2v-2a2 2 0 0 0 -2 -2h-1z"></path></svg>